<mxfile host="app.diagrams.net" modified="2024-03-05T13:10:19.939Z" agent="Mozilla/5.0 (Macintosh; Intel Mac OS X 10_15_7) AppleWebKit/537.36 (KHTML, like Gecko) Chrome/122.0.0.0 Safari/537.36" etag="vsTd3AyMr7XtmRKHZhCu" version="24.0.1" type="github">
  <diagram name="第 1 页" id="y15C08UWrmIScjz5XdOx">
    <mxGraphModel dx="2149" dy="1101" grid="0" gridSize="10" guides="1" tooltips="1" connect="1" arrows="1" fold="1" page="0" pageScale="1" pageWidth="827" pageHeight="1169" math="0" shadow="0">
      <root>
        <mxCell id="0" />
        <mxCell id="1" parent="0" />
        <mxCell id="l1ocYgnFtVUuR_QrjDvQ-14" style="edgeStyle=none;curved=1;rounded=0;orthogonalLoop=1;jettySize=auto;html=1;exitX=0.5;exitY=1;exitDx=0;exitDy=0;entryX=0.5;entryY=0;entryDx=0;entryDy=0;fontSize=12;startSize=8;endSize=8;" edge="1" parent="1" source="l1ocYgnFtVUuR_QrjDvQ-9" target="l1ocYgnFtVUuR_QrjDvQ-12">
          <mxGeometry relative="1" as="geometry" />
        </mxCell>
        <mxCell id="l1ocYgnFtVUuR_QrjDvQ-9" value="&lt;font style=&quot;font-size: 16px;&quot;&gt;进入 APP&lt;/font&gt;" style="ellipse;whiteSpace=wrap;html=1;" vertex="1" parent="1">
          <mxGeometry x="320" y="80" width="120" height="80" as="geometry" />
        </mxCell>
        <mxCell id="l1ocYgnFtVUuR_QrjDvQ-17" style="edgeStyle=none;curved=1;rounded=0;orthogonalLoop=1;jettySize=auto;html=1;exitX=1;exitY=0.5;exitDx=0;exitDy=0;entryX=0;entryY=0.5;entryDx=0;entryDy=0;fontSize=12;startSize=8;endSize=8;" edge="1" parent="1" source="l1ocYgnFtVUuR_QrjDvQ-10" target="l1ocYgnFtVUuR_QrjDvQ-16">
          <mxGeometry relative="1" as="geometry" />
        </mxCell>
        <mxCell id="l1ocYgnFtVUuR_QrjDvQ-20" style="edgeStyle=none;curved=1;rounded=0;orthogonalLoop=1;jettySize=auto;html=1;exitX=0.5;exitY=1;exitDx=0;exitDy=0;entryX=0.5;entryY=0;entryDx=0;entryDy=0;fontSize=12;startSize=8;endSize=8;" edge="1" parent="1" source="l1ocYgnFtVUuR_QrjDvQ-10" target="l1ocYgnFtVUuR_QrjDvQ-11">
          <mxGeometry relative="1" as="geometry" />
        </mxCell>
        <mxCell id="l1ocYgnFtVUuR_QrjDvQ-10" value="&lt;font style=&quot;font-size: 16px;&quot;&gt;是否有账号&lt;/font&gt;" style="rhombus;whiteSpace=wrap;html=1;" vertex="1" parent="1">
          <mxGeometry x="320" y="310" width="120" height="60" as="geometry" />
        </mxCell>
        <mxCell id="l1ocYgnFtVUuR_QrjDvQ-27" style="edgeStyle=orthogonalEdgeStyle;rounded=0;orthogonalLoop=1;jettySize=auto;html=1;exitX=0.5;exitY=1;exitDx=0;exitDy=0;entryX=0.5;entryY=0;entryDx=0;entryDy=0;fontSize=12;startSize=8;endSize=8;" edge="1" parent="1" source="l1ocYgnFtVUuR_QrjDvQ-11" target="l1ocYgnFtVUuR_QrjDvQ-23">
          <mxGeometry relative="1" as="geometry" />
        </mxCell>
        <mxCell id="l1ocYgnFtVUuR_QrjDvQ-28" style="edgeStyle=orthogonalEdgeStyle;rounded=0;orthogonalLoop=1;jettySize=auto;html=1;exitX=0.5;exitY=1;exitDx=0;exitDy=0;entryX=0.5;entryY=0;entryDx=0;entryDy=0;fontSize=12;startSize=8;endSize=8;" edge="1" parent="1" source="l1ocYgnFtVUuR_QrjDvQ-11" target="l1ocYgnFtVUuR_QrjDvQ-24">
          <mxGeometry relative="1" as="geometry" />
        </mxCell>
        <mxCell id="l1ocYgnFtVUuR_QrjDvQ-29" style="edgeStyle=orthogonalEdgeStyle;rounded=0;orthogonalLoop=1;jettySize=auto;html=1;exitX=0.5;exitY=1;exitDx=0;exitDy=0;entryX=0.5;entryY=0;entryDx=0;entryDy=0;fontSize=12;startSize=8;endSize=8;" edge="1" parent="1" source="l1ocYgnFtVUuR_QrjDvQ-11" target="l1ocYgnFtVUuR_QrjDvQ-25">
          <mxGeometry relative="1" as="geometry" />
        </mxCell>
        <mxCell id="l1ocYgnFtVUuR_QrjDvQ-30" style="edgeStyle=orthogonalEdgeStyle;rounded=0;orthogonalLoop=1;jettySize=auto;html=1;exitX=0.5;exitY=1;exitDx=0;exitDy=0;entryX=0.5;entryY=0;entryDx=0;entryDy=0;fontSize=12;startSize=8;endSize=8;" edge="1" parent="1" source="l1ocYgnFtVUuR_QrjDvQ-11" target="l1ocYgnFtVUuR_QrjDvQ-26">
          <mxGeometry relative="1" as="geometry" />
        </mxCell>
        <mxCell id="l1ocYgnFtVUuR_QrjDvQ-34" style="edgeStyle=orthogonalEdgeStyle;rounded=0;orthogonalLoop=1;jettySize=auto;html=1;exitX=0.5;exitY=1;exitDx=0;exitDy=0;entryX=0.5;entryY=0;entryDx=0;entryDy=0;fontSize=12;startSize=8;endSize=8;" edge="1" parent="1" source="l1ocYgnFtVUuR_QrjDvQ-11" target="l1ocYgnFtVUuR_QrjDvQ-33">
          <mxGeometry relative="1" as="geometry" />
        </mxCell>
        <mxCell id="l1ocYgnFtVUuR_QrjDvQ-11" value="&lt;font style=&quot;font-size: 16px;&quot;&gt;用户登录&lt;/font&gt;" style="rounded=1;whiteSpace=wrap;html=1;" vertex="1" parent="1">
          <mxGeometry x="320" y="420" width="120" height="60" as="geometry" />
        </mxCell>
        <mxCell id="l1ocYgnFtVUuR_QrjDvQ-15" style="edgeStyle=none;curved=1;rounded=0;orthogonalLoop=1;jettySize=auto;html=1;exitX=0.5;exitY=1;exitDx=0;exitDy=0;entryX=0.5;entryY=0;entryDx=0;entryDy=0;fontSize=12;startSize=8;endSize=8;" edge="1" parent="1" source="l1ocYgnFtVUuR_QrjDvQ-12" target="l1ocYgnFtVUuR_QrjDvQ-10">
          <mxGeometry relative="1" as="geometry" />
        </mxCell>
        <mxCell id="l1ocYgnFtVUuR_QrjDvQ-12" value="&lt;font style=&quot;font-size: 16px;&quot;&gt;检查更新&lt;/font&gt;" style="rounded=1;whiteSpace=wrap;html=1;" vertex="1" parent="1">
          <mxGeometry x="320" y="200" width="120" height="60" as="geometry" />
        </mxCell>
        <mxCell id="l1ocYgnFtVUuR_QrjDvQ-19" style="edgeStyle=orthogonalEdgeStyle;rounded=0;orthogonalLoop=1;jettySize=auto;html=1;exitX=0.5;exitY=1;exitDx=0;exitDy=0;entryX=1;entryY=0.5;entryDx=0;entryDy=0;fontSize=12;startSize=8;endSize=8;" edge="1" parent="1" source="l1ocYgnFtVUuR_QrjDvQ-16" target="l1ocYgnFtVUuR_QrjDvQ-11">
          <mxGeometry relative="1" as="geometry" />
        </mxCell>
        <mxCell id="l1ocYgnFtVUuR_QrjDvQ-16" value="&lt;font style=&quot;font-size: 16px;&quot;&gt;用户注册&lt;/font&gt;" style="rounded=1;whiteSpace=wrap;html=1;" vertex="1" parent="1">
          <mxGeometry x="510" y="310" width="120" height="60" as="geometry" />
        </mxCell>
        <mxCell id="l1ocYgnFtVUuR_QrjDvQ-21" value="N" style="text;html=1;align=center;verticalAlign=middle;resizable=0;points=[];autosize=1;strokeColor=none;fillColor=none;fontSize=16;" vertex="1" parent="1">
          <mxGeometry x="450" y="310" width="40" height="30" as="geometry" />
        </mxCell>
        <mxCell id="l1ocYgnFtVUuR_QrjDvQ-22" value="Y" style="text;html=1;align=center;verticalAlign=middle;resizable=0;points=[];autosize=1;strokeColor=none;fillColor=none;fontSize=16;" vertex="1" parent="1">
          <mxGeometry x="384" y="380" width="30" height="30" as="geometry" />
        </mxCell>
        <mxCell id="l1ocYgnFtVUuR_QrjDvQ-41" style="edgeStyle=orthogonalEdgeStyle;rounded=0;orthogonalLoop=1;jettySize=auto;html=1;exitX=0.5;exitY=1;exitDx=0;exitDy=0;entryX=0.5;entryY=0;entryDx=0;entryDy=0;fontSize=12;startSize=8;endSize=8;" edge="1" parent="1" source="l1ocYgnFtVUuR_QrjDvQ-23" target="l1ocYgnFtVUuR_QrjDvQ-38">
          <mxGeometry relative="1" as="geometry" />
        </mxCell>
        <mxCell id="l1ocYgnFtVUuR_QrjDvQ-42" style="edgeStyle=orthogonalEdgeStyle;rounded=0;orthogonalLoop=1;jettySize=auto;html=1;exitX=0.5;exitY=1;exitDx=0;exitDy=0;entryX=0.5;entryY=0;entryDx=0;entryDy=0;fontSize=12;startSize=8;endSize=8;" edge="1" parent="1" source="l1ocYgnFtVUuR_QrjDvQ-23" target="l1ocYgnFtVUuR_QrjDvQ-39">
          <mxGeometry relative="1" as="geometry" />
        </mxCell>
        <mxCell id="l1ocYgnFtVUuR_QrjDvQ-43" style="edgeStyle=orthogonalEdgeStyle;rounded=0;orthogonalLoop=1;jettySize=auto;html=1;exitX=0.5;exitY=1;exitDx=0;exitDy=0;entryX=0.5;entryY=0;entryDx=0;entryDy=0;fontSize=12;startSize=8;endSize=8;" edge="1" parent="1" source="l1ocYgnFtVUuR_QrjDvQ-23" target="l1ocYgnFtVUuR_QrjDvQ-40">
          <mxGeometry relative="1" as="geometry" />
        </mxCell>
        <mxCell id="l1ocYgnFtVUuR_QrjDvQ-23" value="&lt;font style=&quot;font-size: 16px;&quot;&gt;八股文&lt;/font&gt;" style="rounded=1;whiteSpace=wrap;html=1;" vertex="1" parent="1">
          <mxGeometry x="64" y="559.5" width="120" height="60" as="geometry" />
        </mxCell>
        <mxCell id="l1ocYgnFtVUuR_QrjDvQ-50" style="edgeStyle=orthogonalEdgeStyle;rounded=0;orthogonalLoop=1;jettySize=auto;html=1;exitX=0.5;exitY=1;exitDx=0;exitDy=0;entryX=0.5;entryY=0;entryDx=0;entryDy=0;fontSize=12;startSize=8;endSize=8;" edge="1" parent="1" source="l1ocYgnFtVUuR_QrjDvQ-24" target="l1ocYgnFtVUuR_QrjDvQ-44">
          <mxGeometry relative="1" as="geometry" />
        </mxCell>
        <mxCell id="l1ocYgnFtVUuR_QrjDvQ-51" style="edgeStyle=orthogonalEdgeStyle;rounded=0;orthogonalLoop=1;jettySize=auto;html=1;exitX=0.5;exitY=1;exitDx=0;exitDy=0;entryX=0.5;entryY=0;entryDx=0;entryDy=0;fontSize=12;startSize=8;endSize=8;" edge="1" parent="1" source="l1ocYgnFtVUuR_QrjDvQ-24" target="l1ocYgnFtVUuR_QrjDvQ-45">
          <mxGeometry relative="1" as="geometry" />
        </mxCell>
        <mxCell id="l1ocYgnFtVUuR_QrjDvQ-52" style="edgeStyle=orthogonalEdgeStyle;rounded=0;orthogonalLoop=1;jettySize=auto;html=1;exitX=0.5;exitY=1;exitDx=0;exitDy=0;entryX=0.5;entryY=0;entryDx=0;entryDy=0;fontSize=12;startSize=8;endSize=8;" edge="1" parent="1" source="l1ocYgnFtVUuR_QrjDvQ-24" target="l1ocYgnFtVUuR_QrjDvQ-46">
          <mxGeometry relative="1" as="geometry" />
        </mxCell>
        <mxCell id="l1ocYgnFtVUuR_QrjDvQ-24" value="&lt;font style=&quot;font-size: 16px;&quot;&gt;在线考试&lt;/font&gt;" style="rounded=1;whiteSpace=wrap;html=1;" vertex="1" parent="1">
          <mxGeometry x="320" y="560" width="120" height="60" as="geometry" />
        </mxCell>
        <mxCell id="l1ocYgnFtVUuR_QrjDvQ-53" style="edgeStyle=orthogonalEdgeStyle;rounded=0;orthogonalLoop=1;jettySize=auto;html=1;exitX=0.5;exitY=1;exitDx=0;exitDy=0;entryX=0.5;entryY=0;entryDx=0;entryDy=0;fontSize=12;startSize=8;endSize=8;" edge="1" parent="1" source="l1ocYgnFtVUuR_QrjDvQ-25" target="l1ocYgnFtVUuR_QrjDvQ-47">
          <mxGeometry relative="1" as="geometry" />
        </mxCell>
        <mxCell id="l1ocYgnFtVUuR_QrjDvQ-54" style="edgeStyle=orthogonalEdgeStyle;rounded=0;orthogonalLoop=1;jettySize=auto;html=1;exitX=0.5;exitY=1;exitDx=0;exitDy=0;entryX=0.5;entryY=0;entryDx=0;entryDy=0;fontSize=12;startSize=8;endSize=8;" edge="1" parent="1" source="l1ocYgnFtVUuR_QrjDvQ-25" target="l1ocYgnFtVUuR_QrjDvQ-48">
          <mxGeometry relative="1" as="geometry" />
        </mxCell>
        <mxCell id="l1ocYgnFtVUuR_QrjDvQ-55" style="edgeStyle=orthogonalEdgeStyle;rounded=0;orthogonalLoop=1;jettySize=auto;html=1;exitX=0.5;exitY=1;exitDx=0;exitDy=0;entryX=0.5;entryY=0;entryDx=0;entryDy=0;fontSize=12;startSize=8;endSize=8;" edge="1" parent="1" source="l1ocYgnFtVUuR_QrjDvQ-25" target="l1ocYgnFtVUuR_QrjDvQ-49">
          <mxGeometry relative="1" as="geometry" />
        </mxCell>
        <mxCell id="l1ocYgnFtVUuR_QrjDvQ-25" value="&lt;font style=&quot;font-size: 16px;&quot;&gt;经验分享&lt;/font&gt;" style="rounded=1;whiteSpace=wrap;html=1;" vertex="1" parent="1">
          <mxGeometry x="583" y="560" width="120" height="60" as="geometry" />
        </mxCell>
        <mxCell id="l1ocYgnFtVUuR_QrjDvQ-65" style="edgeStyle=orthogonalEdgeStyle;rounded=0;orthogonalLoop=1;jettySize=auto;html=1;exitX=0.5;exitY=1;exitDx=0;exitDy=0;entryX=0.5;entryY=0;entryDx=0;entryDy=0;fontSize=12;startSize=8;endSize=8;" edge="1" parent="1" source="l1ocYgnFtVUuR_QrjDvQ-26" target="l1ocYgnFtVUuR_QrjDvQ-57">
          <mxGeometry relative="1" as="geometry" />
        </mxCell>
        <mxCell id="l1ocYgnFtVUuR_QrjDvQ-66" style="edgeStyle=orthogonalEdgeStyle;rounded=0;orthogonalLoop=1;jettySize=auto;html=1;exitX=0.5;exitY=1;exitDx=0;exitDy=0;entryX=0.5;entryY=0;entryDx=0;entryDy=0;fontSize=12;startSize=8;endSize=8;" edge="1" parent="1" source="l1ocYgnFtVUuR_QrjDvQ-26" target="l1ocYgnFtVUuR_QrjDvQ-58">
          <mxGeometry relative="1" as="geometry" />
        </mxCell>
        <mxCell id="l1ocYgnFtVUuR_QrjDvQ-67" style="edgeStyle=orthogonalEdgeStyle;rounded=0;orthogonalLoop=1;jettySize=auto;html=1;exitX=0.5;exitY=1;exitDx=0;exitDy=0;entryX=0.5;entryY=0;entryDx=0;entryDy=0;fontSize=12;startSize=8;endSize=8;" edge="1" parent="1" source="l1ocYgnFtVUuR_QrjDvQ-26" target="l1ocYgnFtVUuR_QrjDvQ-59">
          <mxGeometry relative="1" as="geometry" />
        </mxCell>
        <mxCell id="l1ocYgnFtVUuR_QrjDvQ-68" style="edgeStyle=orthogonalEdgeStyle;rounded=0;orthogonalLoop=1;jettySize=auto;html=1;exitX=0.5;exitY=1;exitDx=0;exitDy=0;entryX=0.5;entryY=0;entryDx=0;entryDy=0;fontSize=12;startSize=8;endSize=8;" edge="1" parent="1" source="l1ocYgnFtVUuR_QrjDvQ-26" target="l1ocYgnFtVUuR_QrjDvQ-60">
          <mxGeometry relative="1" as="geometry" />
        </mxCell>
        <mxCell id="l1ocYgnFtVUuR_QrjDvQ-69" style="edgeStyle=orthogonalEdgeStyle;rounded=0;orthogonalLoop=1;jettySize=auto;html=1;exitX=0.5;exitY=1;exitDx=0;exitDy=0;entryX=0.5;entryY=0;entryDx=0;entryDy=0;fontSize=12;startSize=8;endSize=8;" edge="1" parent="1" source="l1ocYgnFtVUuR_QrjDvQ-26" target="l1ocYgnFtVUuR_QrjDvQ-61">
          <mxGeometry relative="1" as="geometry" />
        </mxCell>
        <mxCell id="l1ocYgnFtVUuR_QrjDvQ-70" style="edgeStyle=orthogonalEdgeStyle;rounded=0;orthogonalLoop=1;jettySize=auto;html=1;exitX=0.5;exitY=1;exitDx=0;exitDy=0;entryX=0.5;entryY=0;entryDx=0;entryDy=0;fontSize=12;startSize=8;endSize=8;" edge="1" parent="1" source="l1ocYgnFtVUuR_QrjDvQ-26" target="l1ocYgnFtVUuR_QrjDvQ-62">
          <mxGeometry relative="1" as="geometry" />
        </mxCell>
        <mxCell id="l1ocYgnFtVUuR_QrjDvQ-71" style="edgeStyle=orthogonalEdgeStyle;rounded=0;orthogonalLoop=1;jettySize=auto;html=1;exitX=0.5;exitY=1;exitDx=0;exitDy=0;entryX=0.5;entryY=0;entryDx=0;entryDy=0;fontSize=12;startSize=8;endSize=8;" edge="1" parent="1" source="l1ocYgnFtVUuR_QrjDvQ-26" target="l1ocYgnFtVUuR_QrjDvQ-63">
          <mxGeometry relative="1" as="geometry" />
        </mxCell>
        <mxCell id="l1ocYgnFtVUuR_QrjDvQ-72" style="edgeStyle=orthogonalEdgeStyle;rounded=0;orthogonalLoop=1;jettySize=auto;html=1;exitX=0.5;exitY=1;exitDx=0;exitDy=0;entryX=0.5;entryY=0;entryDx=0;entryDy=0;fontSize=12;startSize=8;endSize=8;" edge="1" parent="1" source="l1ocYgnFtVUuR_QrjDvQ-26" target="l1ocYgnFtVUuR_QrjDvQ-56">
          <mxGeometry relative="1" as="geometry" />
        </mxCell>
        <mxCell id="l1ocYgnFtVUuR_QrjDvQ-26" value="&lt;span style=&quot;font-size: 16px;&quot;&gt;我的&lt;/span&gt;" style="rounded=1;whiteSpace=wrap;html=1;" vertex="1" parent="1">
          <mxGeometry x="1009" y="560" width="120" height="60" as="geometry" />
        </mxCell>
        <mxCell id="l1ocYgnFtVUuR_QrjDvQ-32" value="&lt;span style=&quot;font-size: 16px;&quot;&gt;搜&lt;/span&gt;&lt;div&gt;&lt;span style=&quot;font-size: 16px;&quot;&gt;索&lt;/span&gt;&lt;/div&gt;" style="rounded=1;whiteSpace=wrap;html=1;" vertex="1" parent="1">
          <mxGeometry x="-164" y="713" width="50" height="100" as="geometry" />
        </mxCell>
        <mxCell id="l1ocYgnFtVUuR_QrjDvQ-35" style="edgeStyle=orthogonalEdgeStyle;rounded=0;orthogonalLoop=1;jettySize=auto;html=1;exitX=0.5;exitY=1;exitDx=0;exitDy=0;entryX=0.5;entryY=0;entryDx=0;entryDy=0;fontSize=12;startSize=8;endSize=8;" edge="1" parent="1" source="l1ocYgnFtVUuR_QrjDvQ-33" target="l1ocYgnFtVUuR_QrjDvQ-32">
          <mxGeometry relative="1" as="geometry" />
        </mxCell>
        <mxCell id="l1ocYgnFtVUuR_QrjDvQ-37" style="edgeStyle=orthogonalEdgeStyle;rounded=0;orthogonalLoop=1;jettySize=auto;html=1;exitX=0.5;exitY=1;exitDx=0;exitDy=0;entryX=0.5;entryY=0;entryDx=0;entryDy=0;fontSize=12;startSize=8;endSize=8;" edge="1" parent="1" source="l1ocYgnFtVUuR_QrjDvQ-33" target="l1ocYgnFtVUuR_QrjDvQ-36">
          <mxGeometry relative="1" as="geometry" />
        </mxCell>
        <mxCell id="l1ocYgnFtVUuR_QrjDvQ-33" value="&lt;font style=&quot;font-size: 16px;&quot;&gt;首页&lt;/font&gt;" style="rounded=1;whiteSpace=wrap;html=1;" vertex="1" parent="1">
          <mxGeometry x="-164" y="560" width="120" height="60" as="geometry" />
        </mxCell>
        <mxCell id="l1ocYgnFtVUuR_QrjDvQ-36" value="&lt;span style=&quot;font-size: 16px;&quot;&gt;八&lt;/span&gt;&lt;div&gt;&lt;span style=&quot;font-size: 16px;&quot;&gt;股&lt;/span&gt;&lt;/div&gt;&lt;div&gt;&lt;span style=&quot;font-size: 16px;&quot;&gt;文&lt;/span&gt;&lt;/div&gt;&lt;div&gt;&lt;span style=&quot;font-size: 16px;&quot;&gt;列&lt;/span&gt;&lt;/div&gt;&lt;div&gt;&lt;span style=&quot;font-size: 16px;&quot;&gt;表&lt;/span&gt;&lt;/div&gt;" style="rounded=1;whiteSpace=wrap;html=1;" vertex="1" parent="1">
          <mxGeometry x="-94" y="713" width="50" height="100" as="geometry" />
        </mxCell>
        <mxCell id="l1ocYgnFtVUuR_QrjDvQ-38" value="&lt;span style=&quot;font-size: 16px;&quot;&gt;详&lt;/span&gt;&lt;div&gt;&lt;span style=&quot;font-size: 16px;&quot;&gt;情&lt;/span&gt;&lt;/div&gt;" style="rounded=1;whiteSpace=wrap;html=1;" vertex="1" parent="1">
          <mxGeometry x="26" y="712.5" width="50" height="100" as="geometry" />
        </mxCell>
        <mxCell id="l1ocYgnFtVUuR_QrjDvQ-39" value="&lt;span style=&quot;font-size: 16px;&quot;&gt;收&lt;/span&gt;&lt;div&gt;&lt;span style=&quot;font-size: 16px;&quot;&gt;藏&lt;/span&gt;&lt;/div&gt;" style="rounded=1;whiteSpace=wrap;html=1;" vertex="1" parent="1">
          <mxGeometry x="99" y="712.5" width="50" height="100" as="geometry" />
        </mxCell>
        <mxCell id="l1ocYgnFtVUuR_QrjDvQ-40" value="&lt;span style=&quot;font-size: 16px;&quot;&gt;切&lt;/span&gt;&lt;div&gt;&lt;span style=&quot;font-size: 16px;&quot;&gt;换&lt;/span&gt;&lt;/div&gt;" style="rounded=1;whiteSpace=wrap;html=1;" vertex="1" parent="1">
          <mxGeometry x="172" y="712.5" width="50" height="100" as="geometry" />
        </mxCell>
        <mxCell id="l1ocYgnFtVUuR_QrjDvQ-44" value="&lt;span style=&quot;font-size: 16px;&quot;&gt;选&lt;/span&gt;&lt;div&gt;&lt;span style=&quot;font-size: 16px;&quot;&gt;择&lt;/span&gt;&lt;/div&gt;&lt;div&gt;&lt;span style=&quot;font-size: 16px;&quot;&gt;分&lt;/span&gt;&lt;/div&gt;&lt;div&gt;&lt;span style=&quot;font-size: 16px;&quot;&gt;类&lt;/span&gt;&lt;/div&gt;&lt;div&gt;&lt;span style=&quot;font-size: 16px;&quot;&gt;考&lt;/span&gt;&lt;/div&gt;&lt;div&gt;&lt;span style=&quot;font-size: 16px;&quot;&gt;试&lt;/span&gt;&lt;/div&gt;" style="rounded=1;whiteSpace=wrap;html=1;" vertex="1" parent="1">
          <mxGeometry x="291" y="713" width="50" height="126" as="geometry" />
        </mxCell>
        <mxCell id="l1ocYgnFtVUuR_QrjDvQ-45" value="&lt;span style=&quot;font-size: 16px;&quot;&gt;展&lt;/span&gt;&lt;div&gt;&lt;span style=&quot;font-size: 16px;&quot;&gt;示&lt;/span&gt;&lt;/div&gt;&lt;div&gt;&lt;span style=&quot;font-size: 16px;&quot;&gt;未&lt;/span&gt;&lt;/div&gt;&lt;div&gt;&lt;span style=&quot;font-size: 16px;&quot;&gt;完&lt;/span&gt;&lt;/div&gt;&lt;div&gt;&lt;span style=&quot;font-size: 16px;&quot;&gt;成&lt;/span&gt;&lt;/div&gt;&lt;div&gt;&lt;span style=&quot;font-size: 16px;&quot;&gt;的&lt;/span&gt;&lt;/div&gt;&lt;div&gt;&lt;span style=&quot;font-size: 16px;&quot;&gt;考&lt;/span&gt;&lt;/div&gt;&lt;div&gt;&lt;span style=&quot;font-size: 16px;&quot;&gt;试&lt;/span&gt;&lt;/div&gt;" style="rounded=1;whiteSpace=wrap;html=1;" vertex="1" parent="1">
          <mxGeometry x="355" y="713" width="50" height="161" as="geometry" />
        </mxCell>
        <mxCell id="l1ocYgnFtVUuR_QrjDvQ-46" value="&lt;span style=&quot;font-size: 16px;&quot;&gt;查&lt;/span&gt;&lt;div&gt;&lt;span style=&quot;font-size: 16px;&quot;&gt;看&lt;/span&gt;&lt;/div&gt;&lt;div&gt;&lt;span style=&quot;font-size: 16px;&quot;&gt;考&lt;/span&gt;&lt;/div&gt;&lt;div&gt;&lt;span style=&quot;font-size: 16px;&quot;&gt;试&lt;/span&gt;&lt;/div&gt;&lt;div&gt;&lt;span style=&quot;font-size: 16px;&quot;&gt;结&lt;/span&gt;&lt;/div&gt;&lt;div&gt;&lt;span style=&quot;font-size: 16px;&quot;&gt;果&lt;/span&gt;&lt;/div&gt;" style="rounded=1;whiteSpace=wrap;html=1;" vertex="1" parent="1">
          <mxGeometry x="419" y="713" width="50" height="127" as="geometry" />
        </mxCell>
        <mxCell id="l1ocYgnFtVUuR_QrjDvQ-47" value="&lt;span style=&quot;font-size: 16px;&quot;&gt;详&lt;/span&gt;&lt;div&gt;&lt;span style=&quot;font-size: 16px;&quot;&gt;情&lt;/span&gt;&lt;/div&gt;" style="rounded=1;whiteSpace=wrap;html=1;" vertex="1" parent="1">
          <mxGeometry x="545" y="713" width="50" height="100" as="geometry" />
        </mxCell>
        <mxCell id="l1ocYgnFtVUuR_QrjDvQ-48" value="&lt;span style=&quot;font-size: 16px;&quot;&gt;收&lt;/span&gt;&lt;div&gt;&lt;span style=&quot;font-size: 16px;&quot;&gt;藏&lt;/span&gt;&lt;/div&gt;" style="rounded=1;whiteSpace=wrap;html=1;" vertex="1" parent="1">
          <mxGeometry x="618" y="713" width="50" height="100" as="geometry" />
        </mxCell>
        <mxCell id="l1ocYgnFtVUuR_QrjDvQ-49" value="&lt;span style=&quot;font-size: 16px;&quot;&gt;切&lt;/span&gt;&lt;div&gt;&lt;span style=&quot;font-size: 16px;&quot;&gt;换&lt;/span&gt;&lt;/div&gt;" style="rounded=1;whiteSpace=wrap;html=1;" vertex="1" parent="1">
          <mxGeometry x="691" y="713" width="50" height="100" as="geometry" />
        </mxCell>
        <mxCell id="l1ocYgnFtVUuR_QrjDvQ-73" style="edgeStyle=orthogonalEdgeStyle;rounded=0;orthogonalLoop=1;jettySize=auto;html=1;exitX=0.5;exitY=1;exitDx=0;exitDy=0;entryX=0;entryY=0.5;entryDx=0;entryDy=0;fontSize=12;startSize=8;endSize=8;" edge="1" parent="1" source="l1ocYgnFtVUuR_QrjDvQ-56" target="l1ocYgnFtVUuR_QrjDvQ-10">
          <mxGeometry relative="1" as="geometry">
            <Array as="points">
              <mxPoint x="833" y="890" />
              <mxPoint x="-185" y="890" />
              <mxPoint x="-185" y="340" />
            </Array>
          </mxGeometry>
        </mxCell>
        <mxCell id="l1ocYgnFtVUuR_QrjDvQ-56" value="&lt;span style=&quot;font-size: 16px;&quot;&gt;退&lt;/span&gt;&lt;div&gt;&lt;span style=&quot;font-size: 16px;&quot;&gt;出&lt;/span&gt;&lt;/div&gt;&lt;div&gt;&lt;span style=&quot;font-size: 16px;&quot;&gt;登&lt;/span&gt;&lt;/div&gt;&lt;div&gt;&lt;span style=&quot;font-size: 16px;&quot;&gt;录&lt;/span&gt;&lt;/div&gt;" style="rounded=1;whiteSpace=wrap;html=1;" vertex="1" parent="1">
          <mxGeometry x="807.5" y="714.5" width="51" height="102.5" as="geometry" />
        </mxCell>
        <mxCell id="l1ocYgnFtVUuR_QrjDvQ-57" value="&lt;span style=&quot;font-size: 16px;&quot;&gt;修&lt;/span&gt;&lt;div&gt;&lt;span style=&quot;font-size: 16px;&quot;&gt;改&lt;/span&gt;&lt;/div&gt;&lt;div&gt;&lt;span style=&quot;font-size: 16px;&quot;&gt;头&lt;/span&gt;&lt;/div&gt;&lt;div&gt;&lt;span style=&quot;font-size: 16px;&quot;&gt;像&lt;/span&gt;&lt;/div&gt;" style="rounded=1;whiteSpace=wrap;html=1;" vertex="1" parent="1">
          <mxGeometry x="870.5" y="714.5" width="50" height="100" as="geometry" />
        </mxCell>
        <mxCell id="l1ocYgnFtVUuR_QrjDvQ-58" value="&lt;span style=&quot;font-size: 16px;&quot;&gt;修&lt;/span&gt;&lt;div&gt;&lt;span style=&quot;font-size: 16px;&quot;&gt;改&lt;/span&gt;&lt;/div&gt;&lt;div&gt;&lt;span style=&quot;font-size: 16px;&quot;&gt;个&lt;/span&gt;&lt;/div&gt;&lt;div&gt;&lt;span style=&quot;font-size: 16px;&quot;&gt;人&lt;/span&gt;&lt;/div&gt;&lt;div&gt;&lt;span style=&quot;font-size: 16px;&quot;&gt;信&lt;/span&gt;&lt;/div&gt;&lt;div&gt;&lt;span style=&quot;font-size: 16px;&quot;&gt;息&lt;/span&gt;&lt;/div&gt;" style="rounded=1;whiteSpace=wrap;html=1;" vertex="1" parent="1">
          <mxGeometry x="940.5" y="714.5" width="50" height="134" as="geometry" />
        </mxCell>
        <mxCell id="l1ocYgnFtVUuR_QrjDvQ-59" value="&lt;span style=&quot;font-size: 16px;&quot;&gt;查&lt;/span&gt;&lt;div&gt;&lt;span style=&quot;font-size: 16px;&quot;&gt;看&lt;/span&gt;&lt;/div&gt;&lt;div&gt;&lt;span style=&quot;font-size: 16px;&quot;&gt;收&lt;/span&gt;&lt;/div&gt;&lt;div&gt;&lt;span style=&quot;font-size: 16px;&quot;&gt;藏&lt;/span&gt;&lt;/div&gt;" style="rounded=1;whiteSpace=wrap;html=1;" vertex="1" parent="1">
          <mxGeometry x="1008" y="714.5" width="50" height="104" as="geometry" />
        </mxCell>
        <mxCell id="l1ocYgnFtVUuR_QrjDvQ-60" value="&lt;span style=&quot;font-size: 16px;&quot;&gt;查&lt;/span&gt;&lt;div&gt;&lt;span style=&quot;font-size: 16px;&quot;&gt;看&lt;/span&gt;&lt;/div&gt;&lt;div&gt;&lt;span style=&quot;font-size: 16px;&quot;&gt;考&lt;/span&gt;&lt;/div&gt;&lt;div&gt;&lt;span style=&quot;font-size: 16px;&quot;&gt;试&lt;/span&gt;&lt;/div&gt;" style="rounded=1;whiteSpace=wrap;html=1;" vertex="1" parent="1">
          <mxGeometry x="1076.5" y="714.5" width="50" height="104" as="geometry" />
        </mxCell>
        <mxCell id="l1ocYgnFtVUuR_QrjDvQ-61" value="&lt;span style=&quot;font-size: 16px;&quot;&gt;查&lt;/span&gt;&lt;div&gt;&lt;span style=&quot;font-size: 16px;&quot;&gt;看&lt;/span&gt;&lt;/div&gt;&lt;div&gt;&lt;span style=&quot;font-size: 16px;&quot;&gt;错&lt;/span&gt;&lt;/div&gt;&lt;div&gt;&lt;span style=&quot;font-size: 16px;&quot;&gt;题&lt;/span&gt;&lt;/div&gt;" style="rounded=1;whiteSpace=wrap;html=1;" vertex="1" parent="1">
          <mxGeometry x="1144.5" y="713" width="50" height="104" as="geometry" />
        </mxCell>
        <mxCell id="l1ocYgnFtVUuR_QrjDvQ-62" value="&lt;span style=&quot;font-size: 16px;&quot;&gt;问&lt;/span&gt;&lt;div&gt;&lt;span style=&quot;font-size: 16px;&quot;&gt;题&lt;/span&gt;&lt;/div&gt;&lt;div&gt;&lt;span style=&quot;font-size: 16px;&quot;&gt;反&lt;/span&gt;&lt;/div&gt;&lt;div&gt;&lt;span style=&quot;font-size: 16px;&quot;&gt;馈&lt;/span&gt;&lt;/div&gt;" style="rounded=1;whiteSpace=wrap;html=1;" vertex="1" parent="1">
          <mxGeometry x="1212.5" y="713" width="50" height="104" as="geometry" />
        </mxCell>
        <mxCell id="l1ocYgnFtVUuR_QrjDvQ-63" value="&lt;span style=&quot;font-size: 16px;&quot;&gt;检&lt;/span&gt;&lt;div&gt;&lt;span style=&quot;font-size: 16px;&quot;&gt;查&lt;/span&gt;&lt;/div&gt;&lt;div&gt;&lt;span style=&quot;font-size: 16px;&quot;&gt;更&lt;/span&gt;&lt;/div&gt;&lt;div&gt;&lt;span style=&quot;font-size: 16px;&quot;&gt;新&lt;/span&gt;&lt;/div&gt;" style="rounded=1;whiteSpace=wrap;html=1;" vertex="1" parent="1">
          <mxGeometry x="1280.5" y="713" width="50" height="104" as="geometry" />
        </mxCell>
      </root>
    </mxGraphModel>
  </diagram>
</mxfile>
